<?xml version="1.0" encoding="UTF-8"?>
<svg width="20px" height="20px" viewBox="0 0 20 20" version="1.1" xmlns="http://www.w3.org/2000/svg" xmlns:xlink="http://www.w3.org/1999/xlink">
    <!-- Generator: Sketch 52.5 (67469) - http://www.bohemiancoding.com/sketch -->
    <title>IC-Close</title>
    <desc>Created with Sketch.</desc>
    <g id="Page-1" stroke="none" stroke-width="1" fill="none" fill-rule="evenodd">
        <g id="Artboard" transform="translate(-305.000000, -73.000000)" fill="#888888">
            <g id="card" transform="translate(20.000000, 58.000000)">
                <g id="IC-Close" transform="translate(285.000000, 15.000000)">
                    <path d="M11.1783333,10 L17.2558333,3.9225 C17.5816667,3.59666667 17.5816667,3.07 17.2558333,2.74416667 C16.93,2.41833333 16.4033333,2.41833333 16.0775,2.74416667 L10,8.82166667 L3.9225,2.74416667 C3.59666667,2.41833333 3.07,2.41833333 2.74416667,2.74416667 C2.41833333,3.07 2.41833333,3.59666667 2.74416667,3.9225 L8.82166667,10 L2.74416667,16.0775 C2.41833333,16.4033333 2.41833333,16.93 2.74416667,17.2558333 C3.07,17.5816667 3.59666667,17.5816667 3.9225,17.2558333 L10,11.1783333 L16.0775,17.2558333 C16.4033333,17.5816667 16.93,17.5816667 17.2558333,17.2558333 C17.5816667,16.93 17.5816667,16.4033333 17.2558333,16.0775 L11.1783333,10 Z"></path>
                </g>
            </g>
        </g>
    </g>
</svg>