<?xml version="1.0" encoding="UTF-8"?>
<svg width="74px" height="26px" viewBox="0 0 74 26" version="1.1" xmlns="http://www.w3.org/2000/svg" xmlns:xlink="http://www.w3.org/1999/xlink">
    <!-- Generator: Sketch 52.5 (67469) - http://www.bohemiancoding.com/sketch -->
    <title>ic_hooq_logo</title>
    <desc>Created with Sketch.</desc>
    <g id="Page-1" stroke="none" stroke-width="1" fill="none" fill-rule="evenodd">
        <g id="Artboard" transform="translate(-180.000000, -72.000000)">
            <g id="card" transform="translate(20.000000, 58.000000)">
                <g id="hooq_applogo_vector" transform="translate(160.000000, 14.000000)">
                    <polygon id="Boundary" points="0 0 73.7801047 0 73.7801047 26 0 26"></polygon>
                    <path d="M69.6492325,4.5950939 C69.6121073,4.5950939 69.5827166,4.56566655 69.5827166,4.52810797 C69.5827166,4.49016218 69.6121073,4.46112205 69.6492325,4.46112205 L70.5267016,4.46112205 C70.5646002,4.46112205 70.5924441,4.49016218 70.5924441,4.52810797 C70.5924441,4.56566655 70.5646002,4.5950939 70.5267016,4.5950939 L70.1593169,4.5950939 L70.1593169,5.80122769 C70.1593169,5.83956067 70.1279927,5.87131123 70.0885471,5.87131123 C70.0491016,5.87131123 70.0185506,5.83956067 70.0185506,5.80122769 L70.0185506,4.5950939 L69.6492325,4.5950939 Z M71.4411025,5.58877002 L71.0087488,4.78532616 L71.0087488,5.80211825 C71.0087488,5.83967683 70.9785846,5.87104018 70.9410727,5.87104018 C70.9035608,5.87104018 70.8726231,5.83967683 70.8726231,5.80211825 L70.8726231,4.51389767 C70.8726231,4.47595188 70.9035608,4.44458853 70.9410727,4.44458853 C70.9723971,4.44458853 70.9925065,4.46433583 71.0029481,4.48563192 L71.5029777,5.42227322 L72.0053278,4.48563192 C72.0138357,4.47014385 72.0296912,4.44458853 72.0675898,4.44458853 C72.1043283,4.44458853 72.1356526,4.47595188 72.1356526,4.51389767 L72.1356526,5.80211825 C72.1356526,5.83967683 72.1043283,5.87104018 72.0675898,5.87104018 C72.0296912,5.87104018 71.9991402,5.83967683 71.9991402,5.80211825 L71.9991402,4.78532616 L71.5656265,5.58877002 C71.5505444,5.61742296 71.5281146,5.62942622 71.5029777,5.62942622 C71.4824816,5.62942622 71.4554111,5.61819737 71.4411025,5.58877002 Z M67.9500595,18.0218219 L69.3476677,19.8439937 C69.6466028,20.2435861 69.5982627,20.5971014 69.2038077,20.8952468 C68.9679082,21.0714237 68.7118991,21.2406308 68.4423548,21.3804108 C68.0262435,21.5616213 66.6139398,21.9991593 65.0368932,20.5912934 C63.8291647,21.2425668 62.4481854,21.6131191 60.9801939,21.6131191 C56.2482806,21.6131191 52.4120122,17.7720766 52.4120122,13.0335002 C52.4120122,8.29492384 56.2482806,4.45465578 60.9801939,4.45465578 C65.7113339,4.45465578 69.5487625,8.29492384 69.5487625,13.0335002 C69.5487625,14.8943924 68.9551464,16.6158919 67.9500595,18.0218219 Z M15.8608044,4.49023963 C17.3438779,4.49023963 19.1115778,4.97656516 19.1115778,7.28777307 L19.1115778,18.7632746 C19.1115778,21.0744825 17.3438779,21.5608081 15.8608044,21.5608081 C15.3669621,21.5608081 15.1175274,21.3079653 15.1175274,20.8073132 L15.1175274,15.0674329 L8.54753094,15.0674329 L8.54753094,20.8073132 C8.54753094,21.3079653 8.29770942,21.5608081 7.80464065,21.5608081 C6.32195384,21.5608081 4.55386721,21.0744825 4.55386721,18.7632746 L4.55386721,7.28777307 C4.55386721,4.97656516 6.32195384,4.49023963 7.80464065,4.49023963 C8.29770942,4.49023963 8.54753094,4.74385684 8.54753094,5.24412165 L8.54753094,10.7269 L15.1175274,10.7269 L15.1175274,5.24412165 C15.1175274,4.74385684 15.3669621,4.49023963 15.8608044,4.49023963 Z M35.3148233,9.41420826 C36.9893235,6.07730262 39.6155432,4.46421966 43.0105634,4.46421966 C47.7161798,4.46421966 51.5311786,8.2998413 51.5311786,13.0117008 C51.5311786,17.7231731 47.7161798,21.5587946 43.0105634,21.5587946 C40.3135739,21.5587946 38.1019188,20.5396793 36.466864,18.448015 L38.6212845,14.1551079 L38.799176,14.5090103 C39.7976886,16.499228 41.1643592,17.5075016 43.0105634,17.5075016 C45.4813214,17.5075016 47.4841474,15.4855334 47.4841474,13.0117008 C47.4841474,10.5378681 45.4813214,8.51589994 43.0105634,8.51589994 C41.1643592,8.51589994 39.7976886,9.52378639 38.799176,11.5143912 L36.2425661,16.608806 C34.5676791,19.9457117 31.9414594,21.5587946 28.5464392,21.5587946 C23.8408228,21.5587946 20.025824,17.7231731 20.025824,13.0117008 C20.025824,8.2998413 23.8408228,4.46421966 28.5464392,4.46421966 C31.2449756,4.46421966 33.4570175,5.48449657 35.0924589,7.57848423 L32.9376517,11.8721657 L32.7578266,11.5143912 C31.759314,9.52378639 30.3926434,8.51589994 28.5464392,8.51589994 C26.0756812,8.51589994 24.0728552,10.5378681 24.0728552,13.0117008 C24.0728552,15.4855334 26.0756812,17.5075016 28.5464392,17.5075016 C30.3926434,17.5075016 31.759314,16.499228 32.7578266,14.5090103 L35.3148233,9.41420826 Z M65.2956092,14.5927622 C65.4715672,14.1060494 65.5728879,13.5821653 65.5728879,13.0335002 C65.5728879,10.493456 63.5163077,8.43509092 60.9801939,8.43509092 C58.4440803,8.43509092 56.3875,10.493456 56.3875,13.0335002 C56.3875,15.5735444 58.4440803,17.6319095 60.9801939,17.6319095 C61.2953712,17.6319095 61.6008805,17.5947381 61.8986553,17.5327858 L63.1152784,18.2614998 L62.4315564,17.3937804 C62.4327166,17.3918443 62.4350368,17.3918443 62.4350368,17.3918443 L60.5919265,15.0167481 C60.2829367,14.619479 60.3254759,14.2628661 60.7195443,13.955815 C61.900589,13.0377594 63.5387375,12.3280184 64.9672834,14.1691632 L65.2956092,14.5927622 Z" id="Combined-Shape" fill="#FBBB21" fill-rule="nonzero"></path>
                </g>
            </g>
        </g>
    </g>
</svg>