<svg
  width="200"
  viewBox="-2.5 0 87.5 24"
  version="1.1"
  xmlns="http://www.w3.org/2000/svg"
  xmlnsXlink="http://www.w3.org/1999/xlink"
>
  <g>
    <path
      d="m 14.765,0.063 c -0.645,0 -0.97,0.35 -0.97,1.038 V 8.653 H 5.215 V 1.101 C 5.215,0.412 4.889,0.063 4.245,0.063 2.309,0.063 0,0.733 0,3.916 v 15.807 c 0,3.183 2.309,3.853 4.245,3.853 0.644,0 0.97,-0.348 0.97,-1.038 v -7.906 h 8.58 v 7.906 c 0,0.69 0.325,1.038 0.97,1.038 1.936,0 4.245,-0.67 4.245,-3.853 V 3.916 c 0,-3.183 -2.309,-3.853 -4.245,-3.853 m 64.553,13.915 -0.429,-0.583 c -1.865,-2.536 -4.004,-1.559 -5.547,-0.294 -0.514,0.423 -0.57,0.914 -0.166,1.461 l 2.407,3.272 c 0,0 -0.003,0 -0.005,0.002 l 0.893,1.195 -1.589,-1.003 c -0.389,0.085 -0.788,0.136 -1.199,0.136 -3.312,0 -5.998,-2.835 -5.998,-6.334 0,-3.498 2.686,-6.334 5.998,-6.334 3.311,0 5.997,2.836 5.997,6.334 0,0.756 -0.132,1.478 -0.362,2.148 M 73.683,0.014 c -6.18,0 -11.188,5.29 -11.188,11.816 0,6.527 5.009,11.818 11.188,11.818 1.917,0 3.72,-0.51 5.297,-1.408 2.06,1.94 3.904,1.337 4.447,1.087 0.352,-0.192 0.686,-0.425 0.994,-0.668 0.515,-0.41 0.578,-0.897 0.189,-1.448 l -1.826,-2.51 c 1.368374,-2.029183 2.095793,-4.422558 2.088,-6.87 0,-6.529 -5.012,-11.818 -11.189,-11.818"
      id="H__Q"
      fill="#e0e0e0"
      fillRule="evenodd"
    />
    <g
      stroke="none"
      strokeWidth="1"
      fill="none"
      fillRule="evenodd"
      strokeLinecap="flat"
    >
      <path
        d="M37.344 5.501C35.821 4.308 33.868 3.55 31.875 3.55 27.181 3.55 23.475 7.506 23.475 12.2 23.475 16.894 27.431 20.45 32.125 20.45 34.12 20.45 35.777 19.779 37.227 18.628 38.168 17.657 38.977 17.445 40.94 12.693 42.903 7.941 44.002 6.871 44.002 6.871 45.561 4.937 47.212 3.55 50.625 3.55 55.319 3.55 59.025 7.334 59.025 12.2 59.025 17.066 54.784 20.45 50.875 20.45 48.789 20.45 46.877 19.814 45.397 18.641"
        id="animated_oo"
        stroke="#e0e0e0"
        strokeWidth="5"
      />
    </g>
  </g>
</svg>
