<svg xmlns="http://www.w3.org/2000/svg" width="16" height="16" viewBox="0 0 16 16">
    <g fill="none" fill-rule="evenodd">
        <path d="M0 0h16v16H0z"/>
        <path fill="#FFF" fill-rule="nonzero" d="M7.769 6.106L6.492 8.788c-.498 1.048-1.18 1.58-2.102 1.58-1.233 0-2.232-1.065-2.232-2.368 0-1.302.999-2.367 2.232-2.367.922 0 1.604.53 2.102 1.579l.09.188 1.076-2.26C6.84 4.037 5.738 3.5 4.39 3.5 2.042 3.5.137 5.52.137 8s1.905 4.5 4.253 4.5c1.695 0 3.006-.85 3.842-2.606l1.276-2.682c.498-1.048 1.18-1.579 2.102-1.579 1.233 0 2.233 1.065 2.233 2.367 0 1.303-1 2.367-2.233 2.367-.922 0-1.604-.53-2.102-1.579l-.09-.186-1.074 2.26c.816 1.102 1.92 1.638 3.266 1.638 2.349 0 4.253-2.02 4.253-4.5s-1.904-4.5-4.253-4.5c-1.695 0-3.005.85-3.841 2.606z"/>
    </g>
</svg>
