<svg xmlns="http://www.w3.org/2000/svg" width="24" height="24" viewBox="0 0 24 24">
    <path fill="#979797" fill-rule="evenodd" d="M12 1v2a9 9 0 0 1 9 9 9 9 0 0 1-9 9v2c6.075 0 11-4.925 11-11S18.075 1 12 1zM9 12v6.514L6.768 14.94 6.18 14H3v-4h3.18l.588-.94L9 5.486V12zm1-11a.997.997 0 0 0-.707.293l-.124.186-.017-.01L5.071 8H2a1 1 0 0 0-1 1v6a1 1 0 0 0 1 1h3.071l4.081 6.531.017-.01.124.186a.997.997 0 0 0 1.414 0A.997.997 0 0 0 11 22V2a.997.997 0 0 0-1-1zm5 11a3 3 0 0 0-3-3v2a1 1 0 1 1 0 2v2a3 3 0 0 0 3-3zm4 0a7 7 0 0 0-7-7v2a5 5 0 0 1 5 5 5 5 0 0 1-5 5v2a7 7 0 0 0 7-7z"/>
</svg>
