<svg xmlns="http://www.w3.org/2000/svg" width="17" height="10" viewBox="0 0 17 10">
    <path fill="#FFF" fill-rule="evenodd" d="M12.116.5c-1.79 0-3.174.85-4.057 2.606L6.712 5.788c-.527 1.048-1.247 1.58-2.22 1.58A2.366 2.366 0 0 1 2.133 5a2.366 2.366 0 0 1 2.359-2.367c.973 0 1.693.53 2.22 1.579l.094.188 1.136-2.26C7.08 1.037 5.914.5 4.492.5A4.499 4.499 0 0 0 0 5c0 2.48 2.011 4.5 4.492 4.5 1.79 0 3.174-.85 4.056-2.606l1.348-2.682c.527-1.048 1.247-1.579 2.22-1.579A2.366 2.366 0 0 1 14.474 5a2.366 2.366 0 0 1-2.358 2.367c-.973 0-1.693-.53-2.22-1.579l-.094-.186-1.135 2.26c.862 1.101 2.027 1.638 3.45 1.638 2.48 0 4.49-2.02 4.49-4.5S14.598.5 12.118.5"/>
</svg>
